# xmcd CD database file
#
# Track frame offsets:
#	150
#	24322
#	45278
#	66421
#	89888
#	111894
#	131652
#	151636
#	167402
#	189175
#	214963
#	239279
#	261399
#	282533
#	302612
#	322864
#
# Disc length: 4597 seconds
#
# Revision: 5
# Processed by: cddbd v1.5.2PL0 Copyright (c) Steve Scherf et al.
# Submitted via: CDex 1.70beta2
#
DISCID=da11f310
DTITLE=一青窈 - BESTYO+INSTYO DISC-2 INSTYO
DYEAR=2009
DGENRE=JPop
TTITLE0=ハナミズキ(instrumental)
TTITLE1=翡翠(instrumental)
TTITLE2=もらい泣き(instrumental)
TTITLE3=一思案（ひとしあん）(instrumental)
TTITLE4=月天心(instrumental)
TTITLE5=影踏み(instrumental)
TTITLE6=うれしいこと。(instrumental)
TTITLE7=江戸ポルカ(instrumental)
TTITLE8=大家（ダージャー）(instrumental)
TTITLE9=さよならありがと(instrumental)
TTITLE10=指切り(instrumental)
TTITLE11=アリガ十々(instrumental)
TTITLE12=かざぐるま(instrumental)
TTITLE13=金魚すくい(instrumental)
TTITLE14=あるこでぃおん -Long ver.(instrumental)
TTITLE15=てんとう虫(instrumental)
EXTD=YEAR: 2009
EXTT0=
EXTT1=
EXTT2=
EXTT3=
EXTT4=
EXTT5=
EXTT6=
EXTT7=
EXTT8=
EXTT9=
EXTT10=
EXTT11=
EXTT12=
EXTT13=
EXTT14=
EXTT15=
PLAYORDER=
